<svg width="25" height="24" viewBox="0 0 25 24" fill="none" xmlns="http://www.w3.org/2000/svg">
<g clip-path="url(#clip0_1_554)">
<path d="M19.3482 12.3517C19.2369 12.2402 19.1046 12.1517 18.959 12.0913C18.8135 12.031 18.6574 11.9999 18.4998 11.9999C18.3422 11.9999 18.1862 12.031 18.0406 12.0913C17.895 12.1517 17.7628 12.2402 17.6514 12.3517L15.7386 14.2645C14.8519 14.0005 13.1971 13.4005 12.1483 12.3517C11.0995 11.3029 10.4995 9.64814 10.2355 8.76135L12.1483 6.84857C12.2598 6.73723 12.3483 6.60498 12.4087 6.45941C12.469 6.31383 12.5001 6.15778 12.5001 6.00018C12.5001 5.84258 12.469 5.68653 12.4087 5.54095C12.3483 5.39538 12.2598 5.26313 12.1483 5.15179L7.34833 0.351838C7.23698 0.240304 7.10474 0.151819 6.95917 0.0914472C6.81359 0.031075 6.65754 0 6.49994 0C6.34234 0 6.18629 0.031075 6.04071 0.0914472C5.89513 0.151819 5.76289 0.240304 5.65155 0.351838L2.39718 3.60621C1.94118 4.0622 1.68439 4.68859 1.69399 5.32819C1.72159 7.03697 2.17398 12.9721 6.85153 17.6497C11.5291 22.3272 17.4642 22.7784 19.1742 22.8072H19.2078C19.8414 22.8072 20.4402 22.5576 20.8938 22.104L24.1482 18.8497C24.2597 18.7383 24.3482 18.6061 24.4086 18.4605C24.4689 18.3149 24.5 18.1589 24.5 18.0013C24.5 17.8437 24.4689 17.6876 24.4086 17.542C24.3482 17.3965 24.2597 17.2642 24.1482 17.1529L19.3482 12.3517ZM19.1958 20.406C17.6982 20.3808 12.5743 19.9788 8.54832 15.9517C4.50916 11.9125 4.11796 6.77057 4.09396 5.30299L6.49994 2.89701L9.60311 6.00018L8.05152 7.55177C7.91048 7.6927 7.80678 7.86657 7.74979 8.05764C7.6928 8.24872 7.68432 8.45098 7.72513 8.64615C7.75392 8.78415 8.45832 12.0565 10.4503 14.0485C12.4423 16.0405 15.7146 16.7449 15.8526 16.7737C16.0477 16.8156 16.2502 16.8078 16.4414 16.751C16.6327 16.6942 16.8065 16.5901 16.947 16.4485L18.4998 14.8969L21.603 18.0001L19.1958 20.406Z" fill="white"/>
</g>
<defs>
<clipPath id="clip0_1_554">
<rect width="24" height="24" fill="white" transform="translate(0.5)"/>
</clipPath>
</defs>
</svg>
