<svg width="32" height="32" viewBox="0 0 32 32" fill="none" xmlns="http://www.w3.org/2000/svg">
<g clip-path="url(#clip0_1_103)">
<g clip-path="url(#clip1_1_103)">
<path d="M13.5949 12.4944C13.6325 12.4648 13.6717 12.4382 13.7107 12.4102C13.8098 12.3388 13.9132 12.2743 14.0208 12.2169C14.0631 12.1939 14.104 12.1708 14.1474 12.1505C15.1516 11.6628 16.3508 11.8272 17.1868 12.5669C17.231 12.6053 17.2669 12.649 17.3087 12.6896C17.3926 12.7705 17.4717 12.8564 17.5453 12.947C17.587 12.9992 17.6218 13.0554 17.6578 13.1106C17.7176 13.1973 17.7728 13.2874 17.8225 13.3804C17.8546 13.4411 17.8826 13.5028 17.91 13.5659C17.9512 13.6601 17.9869 13.7567 18.0173 13.8547C18.0376 13.9206 18.0569 13.9853 18.0736 14.052C18.0967 14.1544 18.1139 14.2576 18.1255 14.3619C18.1332 14.4269 18.1428 14.4912 18.1461 14.5568C18.1502 14.6712 18.1472 14.7857 18.1373 14.8999C18.1332 14.9558 18.1337 15.0121 18.1266 15.0684C18.1038 15.2325 18.0659 15.3944 18.014 15.5517C18.014 15.5602 18.0113 15.5682 18.0086 15.5764L19.5178 16.4478L22.3284 11.5755L6.75404 2.58179L3.9435 7.45357L13.2419 12.821C13.3498 12.7022 13.4681 12.593 13.5949 12.4944Z" fill="white"/>
<path d="M1.15436 7.78827L5.65122 0L6.62421 0.561834L2.12734 8.3501L1.15436 7.78827Z" fill="white"/>
<path d="M26.4882 17.8723L27.0506 16.8982L30.9447 19.1466L30.3824 20.1207L26.4882 17.8723Z" fill="white"/>
<path d="M21.0584 16.0341L22.7447 13.114L26.6389 15.3627L24.9525 18.2828L21.0584 16.0341Z" fill="white"/>
<path d="M16.67 15.9647C16.6442 15.9173 16.6115 15.8739 16.5728 15.836C16.6615 15.7441 16.7391 15.642 16.8039 15.5319C17.268 14.725 16.9938 13.6949 16.1899 13.2256C16.0744 13.1608 15.9514 13.11 15.8241 13.0738C15.7865 13.0625 15.7478 13.0557 15.7118 13.0472C15.6193 13.0271 15.5252 13.0148 15.4308 13.0101C15.3901 13.0101 15.3503 13.0052 15.3097 13.0063C15.1755 13.0093 15.0421 13.0282 14.9123 13.0625C14.3395 13.2132 13.8885 13.6554 13.7269 14.2254C13.5652 14.7955 13.7167 15.4084 14.1254 15.8377C14.087 15.875 14.0546 15.9178 14.0288 15.9647L6.41206 31.1864C6.27345 31.4644 6.38626 31.802 6.66402 31.9409C6.94178 32.0795 7.27964 31.967 7.41825 31.6889L14.7847 16.9506V31.4378C14.7847 31.7482 15.0363 31.9999 15.3468 31.9999C15.6572 31.9999 15.9089 31.7482 15.9089 31.4378V16.955L23.2725 31.6889C23.4114 31.967 23.749 32.0795 24.0271 31.9409C24.3048 31.802 24.4176 31.4644 24.2787 31.1864L16.67 15.9647Z" fill="white"/>
</g>
</g>
<defs>
<clipPath id="clip0_1_103">
<rect width="32" height="32" fill="white"/>
</clipPath>
<clipPath id="clip1_1_103">
<rect width="32" height="32" fill="white"/>
</clipPath>
</defs>
</svg>
